<?xml version="1.0"?>
<svg xmlns="http://www.w3.org/2000/svg" xmlns:xlink="http://www.w3.org/1999/xlink" version="1.1" viewBox="0 0 252 252" width="480px" height="480px"><g fill="none" fill-rule="nonzero" stroke="none" stroke-width="1" stroke-linecap="butt" stroke-linejoin="miter" stroke-miterlimit="10" stroke-dasharray="" stroke-dashoffset="0" font-family="none" font-weight="none" font-size="none" text-anchor="none" style="mix-blend-mode: normal"><path d="M0,252v-252h252v252z" fill="none"/><g fill="#057bff"><g id="surface1"><path d="M44.625,190.5791c5.25,15.75 21.53321,33.07911 37.7959,39.375c12.61231,5.25 26.25,7.3418 39.9082,5.7627c10.5,-1.0459 19.95411,-3.6709 28.3418,-7.875c17.3291,-8.9209 29.4082,-22.55859 36.75,-41.4668c3.1582,-8.4082 5.25,-17.84179 5.7832,-28.875c0.5127,-8.4082 0.5127,-15.75 -1.04589,-22.5791c-1.06641,-4.7168 -2.11231,-8.38769 -4.20411,-11.5459c-2.625,-3.6709 -6.8291,-6.2959 -13.6582,-8.4082l-8.9209,-2.625l6.8291,-19.4209c3.6709,-9.9668 6.82911,-19.9541 9.9668,-29.9209c2.625,-7.875 5.25,-16.7959 6.2959,-25.71679c0.5332,-5.78321 -0.5127,-9.98731 -3.1377,-13.65821c-2.1123,-2.09179 -4.7373,-3.6709 -7.875,-4.2041c-2.625,0 -4.7373,0.5332 -6.8291,2.625c-1.0459,1.0459 -2.09179,2.11231 -3.1582,3.1582c-5.7627,7.3418 -9.9668,15.2168 -13.125,22.0459c-5.25,10.5 -9.43359,22.5791 -14.68359,37.7959c-0.53321,2.625 -1.57911,4.73731 -2.625,6.8291l-3.69141,9.9668l-5.7627,-4.7168c-1.5791,-1.0459 -2.1123,-2.625 -2.625,-3.6709l-3.1582,-9.9873c-5.25,-14.68359 -10.5,-30.43359 -17.3291,-44.625c-3.1377,-6.2959 -6.80859,-13.125 -11.5459,-19.4209c-2.0918,-3.13769 -3.6709,-4.2041 -5.76269,-4.7168c-4.20411,-1.04589 -9.98731,0.5127 -12.61231,6.82911c-0.51269,5.76269 -1.0459,9.96679 0,14.68359c1.5791,7.875 3.1582,14.19141 5.25,19.9541c3.6709,11.5459 7.36231,23.11231 11.5459,34.6582l10.5,32.0127l-14.1709,-8.9209c-2.0918,-1.5791 -4.7168,-2.0918 -6.8291,-2.0918c-0.5127,0 -1.0459,0 -1.0459,0c-4.7168,0.5127 -8.9209,2.625 -13.125,7.3418c-4.2041,4.73731 -4.7168,8.9209 -2.625,14.7041l5.25,13.125l-10.5,3.15821c-8.9209,2.625 -14.1709,8.38769 -15.2168,17.30859c-2.1123,7.3623 -1.5791,14.7041 1.0459,23.1123z"/><path d="M61.4209,144.375c-1.0459,-2.625 -2.0918,-5.25 -3.13769,-7.875c-2.625,-7.34179 -1.57911,-14.1709 3.67089,-19.9541c4.20411,-4.7168 9.45411,-8.38769 16.2627,-8.9209c4.2041,-0.5332 7.875,0.53321 11.0332,2.625c0.53321,0.53321 1.0459,0.53321 2.0918,1.0459c-0.5127,-1.5791 -1.0459,-2.625 -1.55859,-4.2041c-5.25,-16.2627 -11.03321,-32.5459 -16.28321,-48.80859c-2.09179,-6.82911 -3.6709,-13.65821 -5.25,-20.48731c0,-6.2959 0.53321,-12.0791 2.625,-17.3291c4.2041,-8.9209 12.0791,-11.0127 18.375,-9.9668c4.2041,1.0459 6.8291,3.6709 8.9209,6.8291c4.73731,6.2959 8.4082,13.125 12.0791,20.4668c7.3418,14.7041 12.5918,30.4541 17.8418,46.2041c1.06641,3.15821 2.1123,5.78321 3.1582,8.9209c0,0.5332 0.53321,0.5332 1.0459,1.0459c1.0459,-3.1377 2.625,-6.2959 3.6709,-9.9668c4.2041,-13.125 8.94141,-26.25 15.2373,-38.3291c3.6709,-7.875 7.875,-16.26269 13.6377,-23.0918c0.5332,-1.5791 2.1123,-2.625 3.1582,-3.67089c7.3418,-6.82911 17.3291,-4.73731 22.0459,1.55859c4.2041,5.25 5.25,11.0332 4.73731,17.3291c-1.06641,8.9209 -3.69141,17.86231 -6.31641,26.7832c-4.7168,14.1709 -9.9668,28.3418 -14.68359,42.5127c0,0.5332 -0.53321,1.06641 -0.53321,1.5791c1.0459,0.5332 2.0918,0.5332 3.15821,1.0459c6.29589,2.1123 12.59179,4.7373 16.26269,10.5c2.625,4.2041 4.2041,8.94141 5.25,13.6582c1.5791,7.875 1.5791,15.75 1.0459,23.625c-0.5127,10.5 -2.625,21 -6.2959,30.4541c-7.875,19.4209 -20.4668,34.6377 -39.375,44.0918c-9.4541,4.73731 -19.9541,7.875 -30.4541,8.4082c-14.68359,1.57911 -28.875,-0.5332 -42.5127,-6.29589c-17.8623,-7.36231 -35.7041,-25.73731 -40.9541,-42.53321c-2.625,-8.4082 -3.6709,-16.2832 -2.625,-25.2041c1.5791,-11.01269 8.40821,-18.375 18.90821,-21.51269c2.09179,0 4.18359,0 5.76269,-0.53321zM58.7959,173.78321c0.5332,1.04589 1.5791,1.55859 2.11231,2.625c2.625,3.13769 4.71679,6.29589 7.34179,9.43359c3.15821,3.69141 6.2959,7.3623 10.5,8.94141c3.6709,1.55859 6.8291,1.55859 10.5,0c3.15821,-1.57911 3.6709,-3.69141 3.15821,-6.82911c-0.53321,-1.04589 -1.06641,-2.1123 -1.57911,-3.1582c-3.67089,-7.3418 -8.4082,-14.1709 -14.17089,-19.9541c-3.15821,-3.1377 -5.78321,-6.2959 -9.45411,-8.9209c-3.1582,-2.625 -6.29589,-2.625 -9.4541,-0.51269c-4.71679,3.13769 -7.875,7.34179 -9.4541,13.125c-1.5791,5.76269 -0.51269,11.54589 1.5791,16.79589c5.25,14.1709 14.1709,25.7168 26.78321,33.5918c18.88769,12.0791 39.375,14.7041 60.375,7.875c24.13769,-7.875 39.375,-25.2041 47.76269,-48.8291c3.6709,-9.9668 4.2041,-21 4.2041,-31.5c0,-5.25 -0.5332,-10.5 -2.09179,-15.2168c-1.57911,-4.2041 -4.20411,-7.875 -8.40821,-9.96679c-2.625,-1.06641 -4.71679,-2.11231 -7.34179,-3.15821c-16.28321,-5.7832 -33.07911,-7.34179 -49.875,-8.9209c-3.69141,0 -6.82911,0 -10.5,1.0459c-2.625,1.0459 -4.73731,2.625 -4.73731,5.78321c-0.51269,6.29589 1.5791,11.54589 6.8291,15.21679c3.6709,2.625 8.40821,4.2041 13.125,5.25c10.5,2.0918 21.53321,2.0918 32.5459,2.0918c2.625,0 4.73731,0 7.36231,0.5332c2.625,0.53321 3.13769,2.625 3.67089,5.25c0.5127,2.0918 -1.04589,3.15821 -2.625,3.6709c-3.1582,1.5791 -5.7832,2.625 -8.92089,3.6709c-12.61231,4.7373 -22.06641,13.125 -28.875,24.69141c-4.73731,8.38769 -6.31641,17.30859 -2.625,26.76269c1.04589,2.11231 1.55859,4.2041 2.09179,6.8291c0.53321,2.0918 1.0459,4.7168 0.53321,7.3418c-5.25,-1.0459 -8.40821,-3.6709 -11.03321,-7.875c-2.09179,-4.18359 -3.1582,-8.9209 -3.6709,-13.6377c-0.5332,-2.625 -0.5332,-5.25 -0.5332,-7.875c-3.13769,2.0918 -6.8291,1.57911 -10.5,1.0459c0,1.0459 0.5332,1.5791 0.5332,2.0918c1.57911,6.31641 -1.04589,12.0791 -6.29589,15.75c-4.20411,3.1582 -9.45411,3.1582 -14.19141,2.1123c-8.3877,-2.1123 -14.68359,-7.3623 -19.93359,-14.17089c-2.625,-3.69141 -5.25,-7.875 -5.78321,-12.07911c-1.5791,-4.2041 -1.5791,-6.29589 1.0459,-8.92089zM121.7959,100.7959v-0.51269c-4.7168,-14.19141 -9.4541,-28.875 -14.7041,-43.06641c-3.1377,-8.9209 -6.80859,-18.375 -10.5,-27.2959c-1.0459,-2.625 -2.625,-5.25 -5.25,-7.3418c-4.7168,-3.1582 -9.9668,-1.5791 -11.5459,3.6709c-0.51269,2.0918 -1.0459,4.2041 -0.51269,6.2959c0,6.2959 1.55859,12.0791 3.67089,17.86231c6.2959,17.30859 12.07911,34.63769 18.375,51.96679c6.2959,-4.2041 13.6377,-1.5791 20.4668,-1.5791zM161.7041,106.5791c0,-0.5332 0.5127,-0.5332 0.5127,-1.04589c7.3623,-19.95411 14.19141,-39.90821 20.4873,-60.375c1.0459,-4.20411 2.0918,-7.875 1.57911,-12.61231c-0.53321,-4.2041 -3.15821,-6.2959 -6.31641,-6.8291c-2.625,0 -5.25,1.06641 -6.80859,3.1582c-3.15821,3.6709 -5.25,7.875 -6.82911,12.0791c-8.4082,19.95411 -14.7041,40.4209 -21.5332,60.8877c0,0 0,0.5332 0,1.06641c5.7832,1.04589 12.0791,2.09179 18.9082,3.67089zM113.9209,169.5791c0,-1.04589 0,-2.1123 -0.51269,-3.1582c-1.57911,-3.6709 -2.625,-7.3418 -4.20411,-11.5459c-4.2041,-9.96679 -9.4541,-19.9541 -16.2832,-28.875c-2.0918,-2.625 -4.7168,-5.25 -7.875,-6.8291c-6.8291,-3.13769 -16.7959,3.1582 -16.26269,11.0332v0.5127c1.04589,2.625 1.55859,5.7832 2.625,8.4082c5.76269,11.5459 13.63769,21.53321 22.55859,30.9668c2.625,2.625 5.7832,5.25 9.4541,6.8291c5.25,2.11231 10.5,-1.5791 10.5,-7.3418zM123.90821,164.3291c4.18359,-6.29589 9.96679,-10.5 16.26269,-15.2373c-8.38769,-0.5127 -16.26269,-1.55859 -23.625,-4.18359c2.11231,6.29589 4.73731,12.59179 7.36231,19.42089z"/></g></g></g></svg>
