<?xml version="1.0"?>
<svg xmlns="http://www.w3.org/2000/svg" xmlns:xlink="http://www.w3.org/1999/xlink" version="1.1" viewBox="0 0 252 252" width="480px" height="480px"><g fill="none" fill-rule="nonzero" stroke="none" stroke-width="1" stroke-linecap="butt" stroke-linejoin="miter" stroke-miterlimit="10" stroke-dasharray="" stroke-dashoffset="0" font-family="none" font-weight="none" font-size="none" text-anchor="none" style="mix-blend-mode: normal"><path d="M0,252v-252h252v252z" fill="none"/><g fill="#057bff"><g id="surface1"><path d="M47.25,147h15.75v73.5h-15.75z"/><path d="M47.25,204.75h136.5v15.75h-136.5z"/><path d="M168,147h15.75v73.5h-15.75z"/><path d="M78.75,178.5h73.5v15.75h-73.5z"/><path d="M79.18066,148.37402l73.06934,7.85449l-1.68164,15.66797l-73.06934,-7.875z"/><path d="M193.57324,31.5l11.19726,72.63867l-15.56543,2.39941l-11.21777,-72.63867z"/><path d="M149.46094,43.23047l35.86816,64.14844l-13.76074,7.69043l-35.84766,-64.14844z"/><path d="M107.625,76.3916l60.375,41.89746l-8.98242,12.96094l-60.375,-41.91797z"/><path d="M88.7168,111.39844l69.17285,24.87598l-5.33203,14.82715l-69.17285,-24.87598z"/></g></g></g></svg>
